<svg width="116" height="32" viewBox="0 0 116 32" fill="none" xmlns="http://www.w3.org/2000/svg">
<path d="M11.2521 8.59835C5.08404 13.5328 4.46723 20.3177 9.40169 28.953M22.3547 23.4017C28.5227 18.4673 29.1395 11.8152 24.2051 3.17989M16.8034 1.19666C12.8773 1.19666 9.11198 2.75629 6.33581 5.53247C3.55964 8.30864 2 12.0739 2 16C2 19.9261 3.55964 23.6914 6.33581 26.4676C9.11198 29.2438 12.8773 30.8034 16.8034 30.8034C20.7295 30.8034 24.4948 29.2438 27.271 26.4676C30.0471 23.6914 31.6068 19.9261 31.6068 16C31.6068 12.0739 30.0471 8.30864 27.271 5.53247C24.4948 2.75629 20.7295 1.19666 16.8034 1.19666ZM16.8034 6.74792C14.3496 6.74792 11.9963 7.7227 10.2612 9.45781C8.52604 11.1929 7.55127 13.5462 7.55127 16C7.55127 18.4539 8.52604 20.8072 10.2612 22.5423C11.9963 24.2774 14.3496 25.2522 16.8034 25.2522C19.2572 25.2522 21.6105 24.2774 23.3456 22.5423C25.0807 20.8072 26.0555 18.4539 26.0555 16C26.0555 13.5462 25.0807 11.1929 23.3456 9.45781C21.6105 7.7227 19.2572 6.74792 16.8034 6.74792Z" stroke="#EBEBEB" stroke-width="2.26677" stroke-linejoin="round"/>
<path d="M41.1268 9.72H51.4068V11.88H43.6268V15.62H50.8268V17.66H43.6268V21.84H51.5468V24H41.1268V9.72ZM63.1445 24H60.9845V22.6H60.9445C60.6378 23.2 60.1911 23.6333 59.6045 23.9C59.0178 24.1533 58.3978 24.28 57.7445 24.28C56.9311 24.28 56.2178 24.14 55.6045 23.86C55.0045 23.5667 54.5045 23.1733 54.1045 22.68C53.7045 22.1867 53.4045 21.6067 53.2045 20.94C53.0045 20.26 52.9045 19.5333 52.9045 18.76C52.9045 17.8267 53.0311 17.02 53.2845 16.34C53.5378 15.66 53.8711 15.1 54.2845 14.66C54.7111 14.22 55.1911 13.9 55.7245 13.7C56.2711 13.4867 56.8245 13.38 57.3845 13.38C57.7045 13.38 58.0311 13.4133 58.3645 13.48C58.6978 13.5333 59.0178 13.6267 59.3245 13.76C59.6311 13.8933 59.9111 14.0667 60.1645 14.28C60.4311 14.48 60.6511 14.72 60.8245 15H60.8645V9.72H63.1445V24ZM55.1845 18.94C55.1845 19.38 55.2378 19.8133 55.3445 20.24C55.4645 20.6667 55.6378 21.0467 55.8645 21.38C56.1045 21.7133 56.4045 21.98 56.7645 22.18C57.1245 22.38 57.5511 22.48 58.0445 22.48C58.5511 22.48 58.9845 22.3733 59.3445 22.16C59.7178 21.9467 60.0178 21.6667 60.2445 21.32C60.4845 20.9733 60.6578 20.5867 60.7645 20.16C60.8845 19.72 60.9445 19.2733 60.9445 18.82C60.9445 17.6733 60.6845 16.78 60.1645 16.14C59.6578 15.5 58.9645 15.18 58.0845 15.18C57.5511 15.18 57.0978 15.2933 56.7245 15.52C56.3645 15.7333 56.0645 16.02 55.8245 16.38C55.5978 16.7267 55.4311 17.1267 55.3245 17.58C55.2311 18.02 55.1845 18.4733 55.1845 18.94ZM65.411 17.48H71.231V19.64H65.411V17.48ZM72.3645 9.72H83.9245V11.88H79.3845V24H76.8845V11.88H72.3645V9.72ZM90.1334 17.92C90.1067 17.56 90.0267 17.2133 89.8934 16.88C89.7734 16.5467 89.6 16.26 89.3734 16.02C89.16 15.7667 88.8934 15.5667 88.5734 15.42C88.2667 15.26 87.92 15.18 87.5334 15.18C87.1334 15.18 86.7667 15.2533 86.4334 15.4C86.1134 15.5333 85.8334 15.7267 85.5934 15.98C85.3667 16.22 85.18 16.5067 85.0334 16.84C84.9 17.1733 84.8267 17.5333 84.8134 17.92H90.1334ZM84.8134 19.42C84.8134 19.82 84.8667 20.2067 84.9734 20.58C85.0934 20.9533 85.2667 21.28 85.4934 21.56C85.72 21.84 86.0067 22.0667 86.3534 22.24C86.7 22.4 87.1134 22.48 87.5934 22.48C88.26 22.48 88.7934 22.34 89.1934 22.06C89.6067 21.7667 89.9134 21.3333 90.1134 20.76H92.2734C92.1534 21.32 91.9467 21.82 91.6534 22.26C91.36 22.7 91.0067 23.0733 90.5934 23.38C90.18 23.6733 89.7134 23.8933 89.1934 24.04C88.6867 24.2 88.1534 24.28 87.5934 24.28C86.78 24.28 86.06 24.1467 85.4334 23.88C84.8067 23.6133 84.2734 23.24 83.8334 22.76C83.4067 22.28 83.08 21.7067 82.8534 21.04C82.64 20.3733 82.5334 19.64 82.5334 18.84C82.5334 18.1067 82.6467 17.4133 82.8734 16.76C83.1134 16.0933 83.4467 15.5133 83.8734 15.02C84.3134 14.5133 84.84 14.1133 85.4534 13.82C86.0667 13.5267 86.76 13.38 87.5334 13.38C88.3467 13.38 89.0734 13.5533 89.7134 13.9C90.3667 14.2333 90.9067 14.68 91.3334 15.24C91.76 15.8 92.0667 16.4467 92.2534 17.18C92.4534 17.9 92.5067 18.6467 92.4134 19.42H84.8134ZM101.127 17.12C101.033 16.48 100.773 16 100.347 15.68C99.9333 15.3467 99.4067 15.18 98.7667 15.18C98.4733 15.18 98.16 15.2333 97.8267 15.34C97.4933 15.4333 97.1867 15.62 96.9067 15.9C96.6267 16.1667 96.3933 16.5467 96.2067 17.04C96.02 17.52 95.9267 18.1533 95.9267 18.94C95.9267 19.3667 95.9733 19.7933 96.0667 20.22C96.1733 20.6467 96.3333 21.0267 96.5467 21.36C96.7733 21.6933 97.06 21.9667 97.4067 22.18C97.7533 22.38 98.1733 22.48 98.6667 22.48C99.3333 22.48 99.88 22.2733 100.307 21.86C100.747 21.4467 101.02 20.8667 101.127 20.12H103.407C103.193 21.4667 102.68 22.5 101.867 23.22C101.067 23.9267 100 24.28 98.6667 24.28C97.8533 24.28 97.1333 24.1467 96.5067 23.88C95.8933 23.6 95.3733 23.2267 94.9467 22.76C94.52 22.28 94.1933 21.7133 93.9667 21.06C93.7533 20.4067 93.6467 19.7 93.6467 18.94C93.6467 18.1667 93.7533 17.44 93.9667 16.76C94.18 16.08 94.5 15.4933 94.9267 15C95.3533 14.4933 95.88 14.1 96.5067 13.82C97.1467 13.5267 97.8933 13.38 98.7467 13.38C99.3467 13.38 99.9133 13.46 100.447 13.62C100.993 13.7667 101.473 13.9933 101.887 14.3C102.313 14.6067 102.66 14.9933 102.927 15.46C103.193 15.9267 103.353 16.48 103.407 17.12H101.127ZM105.26 9.72H107.54V15.02H107.58C107.86 14.5533 108.273 14.1667 108.82 13.86C109.38 13.54 110 13.38 110.68 13.38C111.813 13.38 112.707 13.6733 113.36 14.26C114.013 14.8467 114.34 15.7267 114.34 16.9V24H112.06V17.5C112.033 16.6867 111.86 16.1 111.54 15.74C111.22 15.3667 110.72 15.18 110.04 15.18C109.653 15.18 109.307 15.2533 109 15.4C108.693 15.5333 108.433 15.7267 108.22 15.98C108.007 16.22 107.84 16.5067 107.72 16.84C107.6 17.1733 107.54 17.5267 107.54 17.9V24H105.26V9.72Z" fill="#EBEBEB"/>
</svg>
